Coordinates
version=1
nRows=107
nColumns=6
inDegrees=yes

Units are S.I. units (second, meters, Newtons, ...)
If the header above contains a line with 'inDegrees', this indicates whether rotational values are in degrees (yes) or radians (no).

endheader
time	foot_tx	hip_flexion_r	knee_angle_r	ankle_angle_r	lumbar
    142.90000000	      0.23232361	     65.27927198	    -83.68193285	      2.34705399	    -30.99099213
    142.91000000	      0.23226438	     65.38138316	    -83.64709163	      2.31956784	    -31.22454305
    142.92000000	      0.23217672	     65.46048625	    -83.61605991	      2.30096098	    -31.50152524
    142.93000000	      0.23207659	     65.52481485	    -83.58768683	      2.28841823	    -31.81462800
    142.94000000	      0.23198014	     65.58515038	    -83.56092089	      2.27865944	    -32.15440811
    142.95000000	      0.23189383	     65.64868195	    -83.53526127	      2.26958157	    -32.51526182
    142.96000000	      0.23182231	     65.72132218	    -83.51065596	      2.25986722	    -32.89252410
    142.97000000	      0.23176307	     65.80466438	    -83.48695345	      2.24927496	    -33.28558748
    142.98000000	      0.23171394	     65.89718582	    -83.46363926	      2.23799351	    -33.69667753
    142.99000000	      0.23167181	     65.99743727	    -83.44026160	      2.22651642	    -34.12763586
    143.00000000	      0.23163313	     66.10062570	    -83.41591614	      2.21554089	    -34.58392604
    143.01000000	      0.23159793	     66.20276907	    -83.38980717	      2.20555422	    -35.07034180
    143.02000000	      0.23156211	     66.30064353	    -83.36132643	      2.19716387	    -35.59133447
    143.03000000	      0.23152476	     66.39522948	    -83.33027999	      2.19036121	    -36.14750943
    143.04000000	      0.23148447	     66.49034641	    -83.29664148	      2.18458644	    -36.73731847
    143.05000000	      0.23143957	     66.59591583	    -83.26081098	      2.17847434	    -37.35365536
    143.06000000	      0.23138848	     66.72550187	    -83.22340334	      2.17023996	    -37.98576289
    143.07000000	      0.23132964	     66.89141038	    -83.18530109	      2.15869796	    -38.62309466
    143.08000000	      0.23126186	     67.10114322	    -83.14733170	      2.14365103	    -39.25850534
    143.09000000	      0.23118599	     67.35735659	    -83.10934486	      2.12513196	    -39.88889651
    143.10000000	      0.23109989	     67.66629281	    -83.07455413	      2.10515486	    -40.50534239
    143.11000000	      0.23101925	     68.02704125	    -83.03949098	      2.08180949	    -41.10696602
    143.12000000	      0.23094455	     68.43201643	    -83.00476984	      2.05752301	    -41.69801261
    143.13000000	      0.23089077	     68.87144519	    -82.96661175	      2.03194146	    -42.28482853
    143.14000000	      0.23086383	     69.33179113	    -82.92234311	      2.00639061	    -42.87745848
    143.15000000	      0.23086803	     69.80733992	    -82.87030642	      1.98172069	    -43.47803682
    143.16000000	      0.23089571	     70.30062409	    -82.81148386	      1.95956849	    -44.08097355
    143.17000000	      0.23093474	     70.82277433	    -82.74891690	      1.94181695	    -44.67133534
    143.18000000	      0.23096850	     71.39956174	    -82.68656060	      1.92933816	    -45.21894793
    143.19000000	      0.23097159	     71.98991704	    -82.62821149	      1.93078490	    -45.76443103
    143.20000000	      0.23094105	     72.67630829	    -82.57930568	      1.94107830	    -46.21621243
    143.21000000	      0.23088407	     73.40917381	    -82.54041218	      1.96653296	    -46.62258216
    143.22000000	      0.23080017	     74.20238128	    -82.51369546	      2.00777011	    -46.96570769
    143.23000000	      0.23069848	     75.05066620	    -82.50068983	      2.06668412	    -47.24715413
    143.24000000	      0.23058308	     75.95667964	    -82.50251862	      2.14428360	    -47.46065008
    143.25000000	      0.23045352	     76.91835816	    -82.52086331	      2.24264664	    -47.60435198
    143.26000000	      0.23031747	     77.93766871	    -82.55613233	      2.36226641	    -47.67127412
    143.27000000	      0.23017353	     79.00948966	    -82.60781764	      2.50428497	    -47.66229354
    143.28000000	      0.23004391	     80.12179328	    -82.67179468	      2.66707030	    -47.58543190
    143.29000000	      0.22993078	     81.27217978	    -82.74692443	      2.85072062	    -47.43837994
    143.30000000	      0.22983668	     82.45099117	    -82.83120546	      3.05556565	    -47.22855846
    143.31000000	      0.22976493	     83.64476358	    -82.91839680	      3.28032820	    -46.97040785
    143.32000000	      0.22970744	     84.85362218	    -83.00950218	      3.52619880	    -46.66446743
    143.33000000	      0.22967579	     86.05317451	    -83.09694930	      3.79061198	    -46.34250113
    143.34000000	      0.22966680	     87.24592849	    -83.17645478	      4.07162730	    -46.00396555
    143.35000000	      0.22967849	     88.41515937	    -83.24313457	      4.36789323	    -45.66980590
    143.36000000	      0.22971965	     89.55257886	    -83.29128652	      4.67610843	    -45.35042177
    143.37000000	      0.22979058	     90.65208166	    -83.31911588	      4.99498946	    -45.05123520
    143.38000000	      0.22990461	     91.70968239	    -83.32152795	      5.32063904	    -44.77249285
    143.39000000	      0.23007342	     92.71896187	    -83.29722899	      5.65142019	    -44.51436395
    143.40000000	      0.23030367	     93.67032639	    -83.24640904	      5.98578227	    -44.27968346
    143.41000000	      0.23060067	     94.54999118	    -83.16995189	      6.32356695	    -44.07401905
    143.42000000	      0.23095873	     95.33933510	    -83.07246324	      6.66574213	    -43.90959869
    143.43000000	      0.23136145	     96.02284251	    -82.96123525	      7.01466229	    -43.79396651
    143.44000000	      0.23178711	     96.58690971	    -82.84382151	      7.37223758	    -43.73185654
    143.45000000	      0.23221011	     97.02553882	    -82.72669735	      7.73940221	    -43.71756700
    143.46000000	      0.23261001	     97.33119241	    -82.61499047	      8.11655755	    -43.74756284
    143.47000000	      0.23297207	     97.48661486	    -82.51158057	      8.50457174	    -43.83030648
    143.48000000	      0.23330260	     97.56954063	    -82.40619050	      8.88858151	    -43.86839583
    143.49000000	      0.23358489	     97.48734159	    -82.30353349	      9.28071886	    -43.96355890
    143.50000000	      0.23382701	     97.31554137	    -82.18838298	      9.66713089	    -44.02803476
    143.51000000	      0.23403657	     97.05213391	    -82.05042898	     10.04515900	    -44.06534841
    143.52000000	      0.23421332	     96.70397302	    -81.87773082	     10.41120243	    -44.07434271
    143.53000000	      0.23436502	     96.27720203	    -81.65841160	     10.76132388	    -44.05477644
    143.54000000	      0.23451449	     95.78271738	    -81.37925341	     11.08821315	    -44.00283832
    143.55000000	      0.23465897	     95.21875135	    -81.03361290	     11.39038973	    -43.92927188
    143.56000000	      0.23480854	     94.59691940	    -80.61458933	     11.66281349	    -43.82899146
    143.57000000	      0.23496405	     93.92472435	    -80.11876859	     11.90272263	    -43.70058169
    143.58000000	      0.23513962	     93.21828057	    -79.54522351	     12.10612844	    -43.53119698
    143.59000000	      0.23532169	     92.47873613	    -78.89640812	     12.27444442	    -43.32446996
    143.60000000	      0.23551100	     91.71627811	    -78.17650884	     12.40762511	    -43.07280438
    143.61000000	      0.23570635	     90.93817279	    -77.39173076	     12.50696945	    -42.77191591
    143.62000000	      0.23590351	     90.14778885	    -76.54703225	     12.57385063	    -42.42214950
    143.63000000	      0.23609032	     89.33887859	    -75.64784527	     12.61146189	    -42.03460141
    143.64000000	      0.23626350	     88.50499532	    -74.69964876	     12.62270935	    -41.62066973
    143.65000000	      0.23641659	     87.63938956	    -73.70710480	     12.61014052	    -41.19190059
    143.66000000	      0.23655014	     86.73314464	    -72.67571656	     12.57675613	    -40.76209965
    143.67000000	      0.23666301	     85.77958637	    -71.61083584	     12.52521596	    -40.34234109
    143.68000000	      0.23678263	     84.77849792	    -70.51422444	     12.45396892	    -39.93572197
    143.69000000	      0.23690390	     83.72022681	    -69.39335916	     12.36798075	    -39.55444077
    143.70000000	      0.23704225	     82.60323613	    -68.24859628	     12.26635816	    -39.20095631
    143.71000000	      0.23720041	     81.42153199	    -67.08265113	     12.15114220	    -38.88288778
    143.72000000	      0.23738473	     80.17294666	    -65.89662424	     12.02287256	    -38.60224088
    143.73000000	      0.23759470	     78.85917166	    -64.69250011	     11.88282905	    -38.35670443
    143.74000000	      0.23782404	     77.48528455	    -63.47391404	     11.73335750	    -38.14024782
    143.75000000	      0.23806370	     76.06605710	    -62.24335382	     11.57535746	    -37.93587398
    143.76000000	      0.23830068	     74.60687745	    -61.00560966	     11.41222606	    -37.73847166
    143.77000000	      0.23853062	     73.12379189	    -59.76153924	     11.24357611	    -37.53061066
    143.78000000	      0.23874699	     71.61600106	    -58.51360192	     11.07164826	    -37.31551054
    143.79000000	      0.23895713	     70.09380213	    -57.26127945	     10.89496812	    -37.08356227
    143.80000000	      0.23916753	     68.55661112	    -56.00385260	     10.71302495	    -36.83703664
    143.81000000	      0.23938776	     67.00975682	    -54.74010478	     10.52408029	    -36.57236663
    143.82000000	      0.23962306	     65.45415435	    -53.46799497	     10.32668832	    -36.29006839
    143.83000000	      0.23987607	     63.89231607	    -52.18476229	     10.11901866	    -35.98864820
    143.84000000	      0.24015090	     62.32201388	    -50.88554939	      9.89845081	    -35.67128663
    143.85000000	      0.24043405	     60.74307697	    -49.57137407	      9.66633140	    -35.33874072
    143.86000000	      0.24072873	     59.16146976	    -48.23564577	      9.41863364	    -34.98481735
    143.87000000	      0.24102403	     57.56550967	    -46.87632074	      9.15597969	    -34.62123335
    143.88000000	      0.24129776	     55.96229560	    -45.50021291	      8.88289613	    -34.24131929
    143.89000000	      0.24154066	     54.34202625	    -44.10054108	      8.59729249	    -33.85349265
    143.90000000	      0.24174129	     52.71835966	    -42.68182102	      8.30116106	    -33.44435889
    143.91000000	      0.24189006	     51.08315695	    -41.24449753	      7.99602312	    -33.02341282
    143.92000000	      0.24198600	     49.44262880	    -39.79144884	      7.68284521	    -32.58683912
    143.93000000	      0.24202980	     47.79967236	    -38.32570458	      7.36283844	    -32.13434495
    143.94000000	      0.24202350	     46.15783652	    -36.85109249	      7.03740806	    -31.66508301
    143.95000000	      0.24197001	     44.52162245	    -35.37279337	      6.70835094	    -31.17773199
    143.96000000	      0.24187380	     42.89644706	    -33.89753898	      6.37803198	    -30.67030921
